<svg xmlns="http://www.w3.org/2000/svg" data-name="Layer 2" viewBox="0 0 100 100"><path fill="#fecb00" stroke="#a55d07" stroke-linecap="round" stroke-linejoin="round" d="m59.35 27.08-3.23 1.07a11.35 11.35 0 0 0-3.34 1.76A6.16 6.16 0 0 0 48 31.48L33.5 44.63a6.15 6.15 0 0 0-2 4 3.94 3.94 0 0 0 0 .69 6.08 6.08 0 0 0 1.61 4.13s0 .06.08.08a6.21 6.21 0 0 0 8.71.37l1-.94a6 6 0 0 1 1.3 1.64 6.07 6.07 0 0 1 .8 2.89 7.55 7.55 0 0 1-.05.83 11.45 11.45 0 0 1-15.67-1.23c-.29-.34-.57-.67-.82-1a11.13 11.13 0 0 1-2-4.72 10.8 10.8 0 0 1-.17-1.89A11.37 11.37 0 0 1 30 40.91l14.66-13.25a11.43 11.43 0 0 1 14.69-.58Z"/><path fill="#f7931a" stroke="#a55d07" stroke-linejoin="round" d="M50.32 57.57a11.48 11.48 0 0 1-6 10.12L27 77.13a11.43 11.43 0 0 1-15.53-4.58 11.29 11.29 0 0 1-1.41-5.41A11.49 11.49 0 0 1 16 57l10.4-5.67a11.13 11.13 0 0 0 2 4.72l-9.87 5.39A6.21 6.21 0 0 0 15.3 67a6 6 0 0 0 .77 2.94 6.22 6.22 0 0 0 8.44 2.49L41.7 63a6.2 6.2 0 0 0 3.2-4.68 7.55 7.55 0 0 0 .05-.83 6.07 6.07 0 0 0-.76-2.93 6 6 0 0 0-1.3-1.64 6.19 6.19 0 0 0-7.14-.84l-2.6 1.41-.08-.08a6.08 6.08 0 0 1-1.61-4.13 3.94 3.94 0 0 1 0-.69l1.87-1a11.47 11.47 0 0 1 15.54 4.57 10.77 10.77 0 0 1 .8 1.85 11.31 11.31 0 0 1 .65 3.56zm39.59-24.76A11.5 11.5 0 0 1 82 43.74l-18.7 6.18a11.45 11.45 0 0 1-8.5-.54l4.74-4.3a5.46 5.46 0 0 0 2.14-.31l18.61-6.13a6.22 6.22 0 0 0 4.28-5.93 6.44 6.44 0 0 0-.32-1.92 6.24 6.24 0 0 0-7.87-4l-13.65 4.5L57.79 33l-.18.07a6.18 6.18 0 0 0-4.1 5.86 5.87 5.87 0 0 0 .32 1.93 6.23 6.23 0 0 0 .73 1.54l-4 3.61a11.74 11.74 0 0 1-1.75-3.35A11.46 11.46 0 0 1 56.1 28.2l3.23-1.07L74.86 22a11.43 11.43 0 0 1 14.46 7.29 11.57 11.57 0 0 1 .59 3.52z"/><path fill="#fecb00" stroke="#a55d07" stroke-linecap="round" stroke-linejoin="round" d="M63.8 36.09a11.39 11.39 0 0 1-3.8 8.55l-.49.44-4.74 4.3L49.71 54a10.77 10.77 0 0 0-.8-1.85 11.35 11.35 0 0 0-2.11-2.76L50.58 46l4-3.61 1.82-1.65A6.19 6.19 0 0 0 57.61 33l.18-.07 4.94-1.63a11 11 0 0 1 1.07 4.79Z"/></svg>