<svg xmlns="http://www.w3.org/2000/svg" data-name="Layer 1" viewBox="0 0 512 512"><path fill="#e1e1e3" d="M447.378 184.9a132.264 132.264 0 0 0 8.16-45.885C455.539 66.381 397.176 7.5 325.18 7.5a129.881 129.881 0 0 0-107.088 56.517 100.248 100.248 0 0 0-44.42-10.325c-56.002 0-101.401 45.802-101.401 102.301a103.322 103.322 0 0 0 3.241 25.742A87.256 87.256 0 0 0 7.5 267.099c0 48.277 38.792 87.413 86.644 87.413h323.712c47.852 0 86.644-39.136 86.644-87.413a87.403 87.403 0 0 0-57.122-82.2Z"/><path fill="#c8c5cc" d="M447.378 184.9a132.268 132.268 0 0 0 8.16-45.885C455.539 66.381 397.176 7.5 325.18 7.5a128.824 128.824 0 0 0-62.729 16.22 130.278 130.278 0 0 1 17.729-1.22c71.995 0 130.359 58.881 130.359 131.515a132.268 132.268 0 0 1-8.16 45.884 87.773 87.773 0 0 1 19.142 154.53c46.151-1.939 82.979-40.292 82.979-87.33a87.403 87.403 0 0 0-57.122-82.2Z"/><circle cx="136.454" cy="214.892" r="22.005" fill="#52bbe9"/><path fill="#1cabe1" d="M136.454 192.886a21.962 21.962 0 0 0-7.5 1.313 22.012 22.012 0 0 1 0 41.386 22.007 22.007 0 1 0 7.5-42.699Z"/><circle cx="375.546" cy="214.892" r="22.005" fill="#52bbe9"/><path fill="#1cabe1" d="M375.546 192.886a21.962 21.962 0 0 0-7.5 1.313 22.012 22.012 0 0 1 0 41.386 22.007 22.007 0 1 0 7.5-42.699Z"/><circle cx="256" cy="128.307" r="22.005" fill="#52bbe9"/><path fill="#1cabe1" d="M256 106.302a21.961 21.961 0 0 0-7.5 1.313 22.012 22.012 0 0 1 0 41.385 22.007 22.007 0 1 0 7.5-42.698Z"/><circle cx="256" cy="398.228" r="106.272" fill="#f69531"/><path fill="#f48a31" d="M256 291.955a106.699 106.699 0 0 0-15 1.064 106.273 106.273 0 0 1 0 210.418 106.273 106.273 0 1 0 15-211.482Z"/><path fill="#fed947" d="M256 512a113.772 113.772 0 1 1 113.772-113.772A113.901 113.901 0 0 1 256 512Zm0-212.545a98.772 98.772 0 1 0 98.772 98.773A98.885 98.885 0 0 0 256 299.455Z"/><path fill="#3c3b41" d="M281 331.88v-10.234a7.5 7.5 0 0 0-15 0v9.906h-15v-9.906a7.5 7.5 0 0 0-15 0v9.906h-20.76a7.5 7.5 0 0 0 0 15h5.794v103.351h-5.795a7.5 7.5 0 1 0 0 15H236v9.906a7.5 7.5 0 0 0 15 0v-9.906h15v9.906a7.5 7.5 0 0 0 15 0v-10.233a27.544 27.544 0 0 0 23.26-27.173v-19.175a27.42 27.42 0 0 0-8.654-20 27.42 27.42 0 0 0 8.655-20v-19.176A27.544 27.544 0 0 0 281 331.879Zm8.26 105.523a12.514 12.514 0 0 1-12.5 12.5h-40.726v-44.175h40.727a12.514 12.514 0 0 1 12.5 12.5Zm0-59.175a12.514 12.514 0 0 1-12.5 12.5h-40.726v-44.176h40.727a12.514 12.514 0 0 1 12.5 12.5Zm167.483-197.582a139.743 139.743 0 0 0 6.296-41.63C463.04 62.362 401.195 0 325.18 0a137.616 137.616 0 0 0-109.56 54.643 107.086 107.086 0 0 0-41.947-8.45c-60.048 0-108.901 49.256-108.901 109.8a111.342 111.342 0 0 0 1.87 20.336A94.82 94.82 0 0 0 0 267.1c0 52.336 42.233 94.913 94.144 94.913h53.995a113.772 113.772 0 1 0 215.722 0h53.995c51.912 0 94.144-42.577 94.144-94.912a95.282 95.282 0 0 0-55.257-86.454ZM256 497a98.772 98.772 0 1 1 98.772-98.772A98.885 98.885 0 0 1 256 497Zm-.029-354.189a14.506 14.506 0 1 1 .058 0l-.029-.001Zm161.886 204.2h-60.284a114.565 114.565 0 0 0-46.919-48.542v-71.631a5.08 5.08 0 0 1 5.075-5.074h31.128a29.507 29.507 0 1 0 .332-15h-31.46a20.096 20.096 0 0 0-20.075 20.074v64.751a112.98 112.98 0 0 0-32.154-6.88V156.844a29.505 29.505 0 1 0-15 0v127.865a112.978 112.978 0 0 0-32.154 6.88v-64.751a20.097 20.097 0 0 0-20.074-20.074h-31.46a29.504 29.504 0 1 0 .331 15h31.129a5.08 5.08 0 0 1 5.074 5.074v71.63a114.565 114.565 0 0 0-46.92 48.544H94.145C50.504 347.012 15 311.163 15 267.1a80.509 80.509 0 0 1 17.756-50.43 79.554 79.554 0 0 1 38.11-25.943 136.26 136.26 0 0 0 10.615 21.18 7.5 7.5 0 1 0 12.77-7.869 121.21 121.21 0 0 1-11.6-24.69 96.013 96.013 0 0 1-2.88-23.355c0-52.273 42.123-94.8 93.901-94.8a92.279 92.279 0 0 1 32.992 6.026 136.09 136.09 0 0 0-9.255 16.98 7.5 7.5 0 1 0 13.649 6.222 121.228 121.228 0 0 1 12.352-21.117 7.529 7.529 0 0 0 .857-1.03A122.697 122.697 0 0 1 325.18 15c67.745 0 122.86 55.633 122.86 124.016a124.603 124.603 0 0 1-7.698 43.287c-.02.052-.032.105-.05.157a121.132 121.132 0 0 1-11.588 24.654 7.5 7.5 0 1 0 12.772 7.87 136.235 136.235 0 0 0 10.197-20.135A80.241 80.241 0 0 1 497 267.1c0 44.064-35.504 79.913-79.144 79.913Zm-56.816-132.12a14.505 14.505 0 1 1 14.505 14.506 14.521 14.521 0 0 1-14.505-14.505Zm-210.082 0a14.505 14.505 0 1 1-14.505-14.504 14.522 14.522 0 0 1 14.505 14.505Z"/></svg>